General
Complete name                    : The Lord of the Rings - The Fellowship of the Ring Extended 720P( HD ) by PiTsToP.mp4
Format                           : MPEG-4
Format profile                   : Base Media / Version 2
Codec ID                         : mp42
File size                        : 3.00 GiB
Duration                         : 3h 48mn
Overall bit rate                 : 1 884 Kbps
Encoded date                     : UTC 2011-06-10 04:21:37
Tagged date                      : UTC 2011-06-10 04:21:37
Writing application              : Yamb 2.1.0.0 [http://yamb.unite-video.com]

Video
ID                               : 1
Format                           : AVC
Format/Info                      : Advanced Video Codec
Format profile                   : High@L4.1
Format settings, CABAC           : Yes
Format settings, ReFrames        : 4 frames
Codec ID                         : avc1
Codec ID/Info                    : Advanced Video Coding
Duration                         : 3h 48mn
Bit rate mode                    : Variable
Bit rate                         : 1 459 Kbps
Maximum bit rate                 : 7 975 Kbps
Width                            : 1 280 pixels
Height                           : 534 pixels
Display aspect ratio             : 2.35
Frame rate mode                  : Constant
Frame rate                       : 23.976 fps
Resolution                       : 24 bits
Colorimetry                      : 4:2:0
Scan type                        : Progressive
Bits/(Pixel*Frame)               : 0.089
Stream size                      : 2.32 GiB (77%)
Writing library                  : x264 core 114 r1924 08d04a4
Encoding settings                : cabac=1 / ref=3 / deblock=1:0:0 / Encoded date                           

Audio #1
ID                               : 2
Format                           : AAC
Format/Info                      : Advanced Audio Codec
Format version                   : Version 4
Format profile                   : LC
Format settings, SBR             : No
Codec ID                         : 40
Duration                         : 3h 48mn
Bit rate mode                    : Variable
Bit rate                         : 125 Kbps
Maximum bit rate                 : 147 Kbps
Channel(s)                       : 2 channels
Channel positions                : L R
Sampling rate                    : 48.0 KHz
Resolution                       : 16 bits
Stream size                      : 203 MiB (7%)
Encoded date                     : UTC 2011-06-10 04:24:33
Tagged date                      : UTC 2011-06-10 04:25:45

Audio #2
ID                               : 3
Format                           : AAC
Format/Info                      : Advanced Audio Codec
Format version                   : Version 4
Format profile                   : LC
Format settings, SBR             : No
Codec ID                         : 40
Duration                         : 3h 48mn
Bit rate mode                    : Variable
Bit rate                         : 294 Kbps
Maximum bit rate                 : 321 Kbps
Channel(s)                       : 6 channels
Channel positions                : Front: L C R, Rear: L R, LFE
Sampling rate                    : 48.0 KHz
Resolution                       : 16 bits
Stream size                      : 481 MiB (16%)
Encoded date                     : UTC 2011-06-10 04:24:47
Tagged date                      : UTC 2011-06-10 04:25:45

Seed and say thanks if you like !! 
A lot of effort has gone in encoding ....

SCREENS:
 
http://postimg.com/46000/photo-45440.jpg
 
http://postimg.com/46000/photo-45441.jpg
 
http://postimg.com/46000/photo-45442.jpg